{"title":"Contatos de 4รยบ Grau Dublado HD - [jcmoc].mp4","uid":13268105,"size":1015435023,"categoryP":"video","categoryS":"movies","magnet":"?xt=urn:btih:b59f69dc905606b4c505ca3f390f85da14e50372&amp;dn=Contatos+de+4%26ordm%3B+Grau+Dublado+HD+-+%5Bjcmoc%5D.mp4&amp;tr=udp%3A%2F%2Ftracker.leechers-paradise.org%3A6969&amp;tr=udp%3A%2F%2Fzer0day.ch%3A1337&amp;tr=udp%3A%2F%2Fopen.demonii.com%3A1337&amp;tr=udp%3A%2F%2Ftracker.coppersurfer.tk%3A6969&amp;tr=udp%3A%2F%2Fexodus.desync.com%3A6969","seeders":1,"leechers":0,"uploader":"jcmoc","files":1,"time":1453363820,"description":"General\r\nFormat                         : MPEG-4\r\nFormat profile                 : Base Media / Version 2\r\nCodec ID                       : mp42\r\nFile size                      : 968 MiB\r\nDuration                       : 1h 38mn\r\nOverall bit rate mode          : Variable\r\nOverall bit rate               : 1 381 Kbps\r\nEncoded date                   : UTC 2015-02-18 14:55:04\r\nTagged date                    : UTC 2015-02-18 14:55:04\r\ngsst                           : 0\r\ngstd                           : 5880591\r\ngssd                           : BBB2C0045\r\ngshh                           : r2---sn-8p5hvj-hvje.googlevideo.com\r\n\r\nVideo\r\nID                             : 1\r\nFormat                         : AVC\r\nFormat/Info                    : Advanced Video Codec\r\nFormat profile                 :   \r\nFormat settings, CABAC         : Yes\r\nFormat settings, ReFrames      : 1 frame\r\nCodec ID                       : avc1\r\nCodec ID/Info                  : Advanced Video Coding\r\nDuration                       : 1h 38mn\r\nBit rate                       : 1 187 Kbps\r\nMaximum bit rate               : 5 605 Kbps\r\nWidth                          : 1 280 pixels\r\nHeight                         : 544 pixels\r\nDisplay aspect ratio           : 2.35:1\r\nFrame rate mode                : Constant\r\nFrame rate                     : 23.976 fps\r\nColor space                    : YUV\r\nChroma subsampling             : 4:2:0\r\nBit depth                      : 8 bits\r\nScan type                      : Progressive\r\nBits/(Pixel*Frame)             : 0.071\r\nStream size                    : 832 MiB (86%)\r\nTagged date                    : UTC 2015-02-18 14:57:35\r\n\r\nAudio\r\nID                             : 2\r\nFormat                         : AAC\r\nFormat/Info                    : Advanced Audio Codec\r\nFormat profile                 : LC\r\nCodec ID                       : 40\r\nDuration                       : 1h 38mn\r\nBit rate mode                  : Variable\r\nBit rate                       : 192 Kbps\r\nMaximum bit rate               : 202 Kbps\r\nChannel count                  : 2 channels\r\nChannel positions              : Front: L R\r\nSampling rate                  : 44.1 KHz\r\nCompression mode               : Lossy\r\nStream size                    : 135 MiB (14%)\r\nTitle                          : IsoMedia File Produced by Google, 5-11-2011\r\nEncoded date                   : UTC 2015-02-18 14:56:41\r\nTagged date                    : UTC 2015-02-18 14:57:35","torrent":{"xt":"urn:btih:b59f69dc905606b4c505ca3f390f85da14e50372","amp;dn":"Contatos+de+4%26ordm%3B+Grau+Dublado+HD+-+%5Bjcmoc%5D.mp4","amp;tr":["udp%3A%2F%2Ftracker.leechers-paradise.org%3A6969","udp%3A%2F%2Fzer0day.ch%3A1337","udp%3A%2F%2Fopen.demonii.com%3A1337","udp%3A%2F%2Ftracker.coppersurfer.tk%3A6969","udp%3A%2F%2Fexodus.desync.com%3A6969"],"infoHash":"b59f69dc905606b4c505ca3f390f85da14e50372","infoHashBuffer":{"type":"Buffer","data":[181,159,105,220,144,86,6,180,197,5,202,63,57,15,133,218,20,229,3,114]},"announce":[],"urlList":[]}}